<svg width="1280" height="819" viewBox="0 0 1280 819" fill="none" xmlns="http://www.w3.org/2000/svg">
<path d="M209.5 7.24615C221.2 4.54614 236 2.04614 248 0.646118C260.5 -0.753906 286.5 0.246094 297 2.44611C316.7 6.74609 328.2 13.0461 340.7 26.5461C348.5 34.9462 362.6 55.2461 365.9 62.9461C370.3 73.0461 378.5 110.746 378.5 121.246V124.346H639.5H900.5V121.246C900.5 116.046 905.3 89.0461 908.1 78.2462C911.6 65.1462 914.1 59.6461 921.6 48.3461C933.6 30.4461 945.2 17.8461 954.9 12.1461C961.3 8.44611 973.9 4.04614 984.1 2.04614C995.1 -0.15387 1024.5 -0.453857 1038.5 1.54614C1064.6 5.14612 1085.8 10.6461 1099.5 17.3461C1120.5 27.5461 1131.3 44.8461 1140.9 83.3461C1142.8 90.9461 1144.9 99.6462 1145.5 102.746L1146.6 108.246L1157.8 116.246C1186.8 136.646 1211.7 159.146 1221.1 173.346C1232.5 190.446 1241.2 210.746 1249.9 240.846C1257 265.446 1257.4 268.446 1267.4 379.146C1276.7 480.946 1278.9 521.646 1279 592.146C1279 646.746 1277.8 680.046 1275 702.746C1271.5 730.546 1261.6 752.046 1243.8 770.746C1220.4 795.246 1196.2 809.146 1165.2 815.846C1150.7 818.946 1123.7 818.946 1112.2 815.846C1095.6 811.346 1078.3 801.146 1060.5 785.346C1036 763.646 1018.2 736.246 987.9 673.646C969.7 636.246 968 633.046 961.7 626.146C958.6 622.846 953.7 616.846 950.8 612.946L945.4 605.646L935.2 613.946C912.1 632.646 900.8 638.146 874.3 643.746C861.9 646.346 837.4 646.846 825.5 644.746C798.2 639.946 774.3 630.946 754.5 617.846C737.3 606.446 726.9 593.246 713.2 565.446L706 550.846H639.5H573L565.8 565.446C552.1 593.246 541.7 606.446 524.5 617.846C504.4 631.046 480.8 639.946 453.5 644.746C441.6 646.846 417.1 646.346 404.7 643.746C378.2 638.146 366.9 632.646 343.8 613.946L333.6 605.646L328.2 612.946C325.2 616.846 320.2 623.046 316.9 626.646C312.9 631.046 309.3 636.546 305.8 643.646C303 649.446 295 665.646 288.2 679.646C259.7 737.946 241.1 765.746 216.8 786.746C199 802.146 183 811.446 166.7 815.846C155.3 818.946 128.2 818.946 113.8 815.846C82.8 809.146 58.6 795.246 35.2 770.746C17.4 752.046 7.5 730.546 4 702.746C1.2 680.046 0 646.746 0 592.146C0.1 521.746 2.3 481.046 11.6 379.146C21.8 266.546 21.6 267.846 27.5 246.246C35.5 217.046 44.5 194.646 54.9 177.646C64.9 161.446 88.4 139.646 120.3 116.846C126.7 112.346 132 108.446 132.1 108.346C132.3 108.246 133.8 101.546 135.5 93.6461C141.6 65.7461 151.7 40.2461 160 31.4461C171.4 19.4461 184.5 13.0461 209.5 7.24615Z" fill="#C4C4C4"/>
<circle cx="935.5" cy="283.5" r="47.5" fill="white"/>
<circle cx="1050.5" cy="183.5" r="47.5" fill="white"/>
<circle cx="1050.5" cy="383.5" r="47.5" fill="white"/>
<circle cx="1162.5" cy="283.5" r="47.5" fill="white"/>
<path d="M269 165H192V221C201.333 232.333 222 255 230 255C238 255 259.333 232.333 269 221V165Z" fill="white"/>
<path d="M269 392H192V336C201.333 324.667 222 302 230 302C238 302 259.333 324.667 269 336V392Z" fill="white"/>
<path d="M119 240L119 317L175 317C186.333 307.667 209 287 209 279C209 271 186.333 249.667 175 240L119 240Z" fill="white"/>
<path d="M341 240L341 317L285 317C273.667 307.667 251 287 251 279C251 271 273.667 249.667 285 240L341 240Z" fill="white"/>
<circle cx="429" cy="511" r="93" fill="white"/>
<circle cx="843" cy="511" r="93" fill="white"/>
<rect x="471" y="262" width="75" height="47" fill="white"/>
<path d="M728 309V260L800 283L728 309Z" fill="white"/>
</svg>
